<?xml version="1.0" encoding="UTF-8" standalone="no"?>
<!-- Created with Inkscape (http://www.inkscape.org/) -->

<svg
   xmlns:dc="http://purl.org/dc/elements/1.1/"
   xmlns:cc="http://creativecommons.org/ns#"
   xmlns:rdf="http://www.w3.org/1999/02/22-rdf-syntax-ns#"
   xmlns:svg="http://www.w3.org/2000/svg"
   xmlns="http://www.w3.org/2000/svg"
   xmlns:sodipodi="http://sodipodi.sourceforge.net/DTD/sodipodi-0.dtd"
   xmlns:inkscape="http://www.inkscape.org/namespaces/inkscape"
   width="210mm"
   height="297mm"
   viewBox="0 0 210 297"
   version="1.1"
   id="svg8"
   inkscape:version="0.92.4 (5da689c313, 2019-01-14)"
   sodipodi:docname="carrito.svg">
  <defs
     id="defs2" />
  <sodipodi:namedview
     id="base"
     pagecolor="#ffffff"
     bordercolor="#666666"
     borderopacity="1.0"
     inkscape:pageopacity="0.0"
     inkscape:pageshadow="2"
     inkscape:zoom="0.45254834"
     inkscape:cx="-874.18314"
     inkscape:cy="-979.58743"
     inkscape:document-units="mm"
     inkscape:current-layer="layer1"
     showgrid="false"
     showguides="true"
     inkscape:guide-bbox="true"
     inkscape:snap-global="true"
     inkscape:window-width="1366"
     inkscape:window-height="705"
     inkscape:window-x="-8"
     inkscape:window-y="-8"
     inkscape:window-maximized="1">
    <sodipodi:guide
       position="-994.83331,350.04376"
       orientation="0,1"
       id="guide5396"
       inkscape:locked="false" />
    <sodipodi:guide
       position="-1014.2544,350.04377"
       orientation="1,0"
       id="guide5398"
       inkscape:locked="false" />
    <sodipodi:guide
       position="-999.05349,364.63582"
       orientation="1,0"
       id="guide5415"
       inkscape:locked="false" />
    <sodipodi:guide
       position="-883.70833,329.93542"
       orientation="0,1"
       id="guide5418"
       inkscape:locked="false" />
    <sodipodi:guide
       position="-885.03123,369.88751"
       orientation="0,1"
       id="guide5420"
       inkscape:locked="false" />
    <sodipodi:guide
       position="-899.05417,350.04376"
       orientation="1,0"
       id="guide5422"
       inkscape:locked="false" />
    <sodipodi:guide
       position="-813.32914,350.04377"
       orientation="1,0"
       id="guide5424"
       inkscape:locked="false" />
  </sodipodi:namedview>
  <metadata
     id="metadata5">
    <rdf:RDF>
      <cc:Work
         rdf:about="">
        <dc:format>image/svg+xml</dc:format>
        <dc:type
           rdf:resource="http://purl.org/dc/dcmitype/StillImage" />
        <dc:title />
      </cc:Work>
    </rdf:RDF>
  </metadata>
  <g
     inkscape:label="Capa 1"
     inkscape:groupmode="layer"
     id="layer1">
    <path
       sodipodi:type="star"
       style="opacity:1;fill:#00ff00;fill-opacity:1;stroke:none;stroke-width:0.29500002;stroke-linecap:round;stroke-linejoin:round;stroke-miterlimit:4;stroke-dasharray:none;stroke-dashoffset:0;stroke-opacity:1"
       id="path5345-2-3"
       sodipodi:sides="3"
       sodipodi:cx="-938.65057"
       sodipodi:cy="-38.690525"
       sodipodi:r1="76.646263"
       sodipodi:r2="38.323132"
       sodipodi:arg1="1.0447299"
       sodipodi:arg2="2.0919275"
       inkscape:flatsided="false"
       inkscape:rounded="0"
       inkscape:randomized="0"
       d="m -900.16376,27.592316 -57.56642,-33.0468535 -57.56642,-33.0468515 57.40262,-33.330557 57.40262,-33.330554 0.1638,66.377409 z"
       inkscape:transform-center-x="19.121384"
       inkscape:transform-center-y="0.046370146"
       transform="rotate(0.21071143,2939.5212,237.62284)" />
    <rect
       style="opacity:0.898;fill:#000000;fill-opacity:1;stroke:none;stroke-width:0.29500002;stroke-linecap:round;stroke-linejoin:round;stroke-miterlimit:4;stroke-dasharray:none;stroke-dashoffset:0;stroke-opacity:1"
       id="rect833"
       width="249.46428"
       height="222.25"
       x="-42.333332"
       y="29.392857" />
    <g
       id="g3760"
       inkscape:export-filename="C:\xampp\htdocs\images\carrito.png"
       inkscape:export-xdpi="96"
       inkscape:export-ydpi="96"
       style="fill:#ffffff">
      <path
         sodipodi:nodetypes="zzzzzzzzzzzzczzz"
         inkscape:connector-curvature="0"
         id="rect3713"
         d="m 23.434524,88.886304 c 0.325316,-0.773112 10.292008,-0.804913 10.775976,0 0.483968,0.804913 1.528357,4.194237 2.410798,4.233333 0.882441,0.0391 98.530522,-1.911603 99.450132,0.529167 0.91961,2.44077 -20.00106,48.324616 -21.69584,49.439286 -1.69478,1.11467 -53.593351,-0.32184 -55.562494,1.05834 -1.969143,1.38018 -4.392847,6.66755 -5.291668,8.61786 -0.898821,1.95031 72.698192,1.02079 74.612502,0.99003 1.91431,-0.0308 1.87894,7.92219 0,7.93024 -1.87894,0.008 -73.587206,-0.0147 -78.241073,0 -4.653867,0.0147 -8.07055,-4.55992 -6.35,-8.92023 1.72055,-4.36031 4.863525,-7.15529 4.233334,-9.14703 -0.630192,-1.99173 -15.345834,-43.32767 -15.345834,-43.32767 0,0 -1.631003,-4.13441 -2.788223,-4.227208 -1.15722,-0.0928 -6.094734,0.259688 -6.272079,-0.535267 -0.177345,-0.794955 -0.260847,-5.867739 0.06447,-6.640851 z"
         style="stroke-width:0.2660656;fill:#ffffff" />
      <circle
         style="stroke-width:0.33020028;fill:#ffffff"
         r="8.6979904"
         cy="174.23465"
         cx="52.826607"
         id="path3734" />
      <circle
         style="stroke-width:0.33020028;fill:#ffffff"
         r="8.6979904"
         cy="174.23465"
         cx="115.15836"
         id="path3734-4" />
    </g>
    <rect
       style="opacity:1;fill:#00ff00;fill-opacity:1;stroke:none;stroke-width:0.40337494;stroke-linecap:round;stroke-linejoin:round;stroke-miterlimit:4;stroke-dasharray:none;stroke-dashoffset:0;stroke-opacity:1"
       id="rect5430"
       width="3.1337938"
       height="3.1337938"
       x="-899.05414"
       y="-76.021309" />
    <rect
       style="opacity:1;fill:#00ff00;fill-opacity:1;stroke:none;stroke-width:0.40337497;stroke-linecap:round;stroke-linejoin:round;stroke-miterlimit:4;stroke-dasharray:none;stroke-dashoffset:0;stroke-opacity:1"
       id="rect5430-0"
       width="3.1337938"
       height="3.1337938"
       x="-899.05414"
       y="-32.935421" />
    <rect
       style="opacity:1;fill:#00ff00;fill-opacity:1;stroke:none;stroke-width:0.61623496;stroke-linecap:round;stroke-linejoin:round;stroke-miterlimit:4;stroke-dasharray:none;stroke-dashoffset:0;stroke-opacity:1"
       id="rect5430-3"
       width="4.7874889"
       height="4.7874889"
       x="-818.11658"
       y="-72.887535" />
    <rect
       style="opacity:1;fill:#00ff00;fill-opacity:1;stroke:none;stroke-width:0.61623496;stroke-linecap:round;stroke-linejoin:round;stroke-miterlimit:4;stroke-dasharray:none;stroke-dashoffset:0;stroke-opacity:1"
       id="rect5430-3-2"
       width="4.7874889"
       height="4.7874889"
       x="-818.11664"
       y="-37.722908" />
    <path
       style="opacity:0.72399998;fill:#333333;fill-opacity:1;stroke:none;stroke-width:0.29500002;stroke-linecap:round;stroke-linejoin:round;stroke-miterlimit:4;stroke-dasharray:none;stroke-dashoffset:0;stroke-opacity:1"
       inkscape:transform-center-x="17.664011"
       inkscape:transform-center-y="-0.10705866"
       d="m -999.0724,-61.809139 42.30251,-24.426547 42.20485,-24.370124 c 16.51079,-10.49396 15.27793,-9.79566 15.27897,8.75405 l 0.20727,25.887883 c -0.004,3.871932 -0.57146,3.076368 3.16653,3.076368 h 77.78753 c 5.12818,-0.368361 4.79557,-0.0177 4.79557,4.795583 v 30.360937 c 0.36836,5.128172 0.0177,4.79557 -4.79557,4.79557 h -77.82057 c -3.89739,-0.03172 -3.10404,-0.617102 -3.13359,3.142777 l -0.20117,25.5596747 c 0.8367,19.4813243 0.81726,18.0318013 -15.1806,8.7966371 l -42.30503,-24.4216738 -42.30198,-24.419668 c -17.28322,-9.006824 -15.98242,-8.305565 -0.005,-17.531467 z"
       id="path5345-2"
       inkscape:connector-curvature="0"
       sodipodi:nodetypes="cccccccccccccccccc" />
    <g
       id="g5516"
       transform="translate(-16.370259,-14.03165)"
       inkscape:export-filename="C:\xampp\htdocs\images\link_back.png"
       inkscape:export-xdpi="96"
       inkscape:export-ydpi="96"
       style="stroke:#333333">
      <path
         sodipodi:nodetypes="cccccccccccccccccc"
         inkscape:connector-curvature="0"
         id="path5345-2-4"
         d="m -252.88287,589.73432 42.30251,-24.42654 42.20486,-24.37007 c 16.51079,-10.49391 15.27793,-9.79561 15.27897,8.75401 l 0.20727,23.24204 c -0.004,3.87193 -0.57146,3.07636 3.16653,3.07636 h 77.787528 c 5.12818,-0.36836 4.79557,-0.0177 4.79557,4.79558 v 35.6526 c 0.36836,5.12818 0.0177,4.79558 -4.79557,4.79558 h -77.820568 c -3.89739,-0.0317 -3.10404,-0.61711 -3.13359,3.14279 l -0.20117,22.91391 c 0.8367,19.48133 0.81726,18.03181 -15.1806,8.79664 l -42.30503,-24.4217 -42.30199,-24.41973 c -17.28322,-9.00683 -15.98242,-8.30557 -0.005,-17.53147 z"
         inkscape:transform-center-y="-0.10705866"
         inkscape:transform-center-x="17.664011"
         style="opacity:1;fill:#333333;fill-opacity:1;stroke:#333333;stroke-width:0.29500002;stroke-linecap:round;stroke-linejoin:round;stroke-miterlimit:4;stroke-dasharray:none;stroke-dashoffset:0;stroke-opacity:1" />
      <circle
         r="128.69215"
         cy="598.39435"
         cx="-166.19527"
         id="path5512"
         style="opacity:1;fill:none;fill-opacity:1;stroke:#333333;stroke-width:6.48699999;stroke-linecap:round;stroke-linejoin:round;stroke-miterlimit:4;stroke-dasharray:none;stroke-dashoffset:0;stroke-opacity:1" />
    </g>
  </g>
</svg>
